<svg width="200" height="200" viewBox="0 0 200 200" fill="none" xmlns="http://www.w3.org/2000/svg">
  <!-- Memory Box Container -->
  <rect width="200" height="200" rx="40" fill="url(#gradient0)"/>
  
  <!-- Box/Container -->
  <rect x="50" y="50" width="100" height="100" rx="20" fill="#FFFFFF" fill-opacity="0.2"/>
  
  <!-- Heart Symbol -->
  <path d="M100 120C90 110, 70 90, 70 75C70 60, 85 60, 100 75C115 60, 130 60, 130 75C130 90, 110 110, 100 120Z" fill="#FF6B9D"/>
  
  <!-- Memory Lines/Data -->
  <rect x="70" y="65" width="60" height="3" rx="1.5" fill="#FFFFFF" fill-opacity="0.6"/>
  <rect x="70" y="75" width="45" height="3" rx="1.5" fill="#FFFFFF" fill-opacity="0.6"/>
  <rect x="70" y="85" width="35" height="3" rx="1.5" fill="#FFFFFF" fill-opacity="0.6"/>
  
  <!-- Bottom Elements -->
  <rect x="70" y="130" width="50" height="3" rx="1.5" fill="#FFFFFF" fill-opacity="0.6"/>
  <rect x="70" y="140" width="60" height="3" rx="1.5" fill="#FFFFFF" fill-opacity="0.6"/>
  
  <defs>
    <linearGradient id="gradient0" x1="0" y1="0" x2="200" y2="200" gradientUnits="userSpaceOnUse">
      <stop stop-color="#667eea"/>
      <stop offset="1" stop-color="#764ba2"/>
    </linearGradient>
  </defs>
</svg>
